<svg width="69" height="65" viewBox="0 0 69 65" fill="none" xmlns="http://www.w3.org/2000/svg">
<g clip-path="url(#clip0_189_26)" filter="url(#filter0_d_189_26)">
<mask id="mask0_189_26" style="mask-type:luminance" maskUnits="userSpaceOnUse" x="4" y="0" width="61" height="57">
<path d="M65 0H4V57H65V0Z" fill="white"/>
</mask>
<g mask="url(#mask0_189_26)">
<path d="M65 0H4V57H65V0Z" fill="white"/>
<path d="M17.5555 14.25H54.4958C56.0247 14.25 57.2076 15.5021 57.0179 16.9196L55.1117 31.1695C54.9526 32.3582 53.8714 33.25 52.5896 33.25H46.0786H28.0046H24.3333" stroke="#2E3137" stroke-width="2" stroke-linejoin="round"/>
<path d="M9.08337 9.5H14.7605C15.9097 9.5 16.916 10.2206 17.2148 11.2576L25.0978 38.6175C25.3966 39.6544 26.4028 40.375 27.5521 40.375H52.2917" stroke="#2E3137" stroke-width="2" stroke-linecap="round" stroke-linejoin="round"/>
<path d="M29.4167 49.875C30.8204 49.875 31.9583 48.8117 31.9583 47.5C31.9583 46.1883 30.8204 45.125 29.4167 45.125C28.0129 45.125 26.875 46.1883 26.875 47.5C26.875 48.8117 28.0129 49.875 29.4167 49.875Z" stroke="#2E3137" stroke-width="1.5" stroke-linejoin="round"/>
<path d="M48.4792 49.875C49.8829 49.875 51.0208 48.8117 51.0208 47.5C51.0208 46.1883 49.8829 45.125 48.4792 45.125C47.0754 45.125 45.9375 46.1883 45.9375 47.5C45.9375 48.8117 47.0754 49.875 48.4792 49.875Z" stroke="#2E3137" stroke-width="1.5" stroke-linejoin="round"/>
</g>
</g>
<defs>
<filter id="filter0_d_189_26" x="0" y="0" width="69" height="65" filterUnits="userSpaceOnUse" color-interpolation-filters="sRGB">
<feFlood flood-opacity="0" result="BackgroundImageFix"/>
<feColorMatrix in="SourceAlpha" type="matrix" values="0 0 0 0 0 0 0 0 0 0 0 0 0 0 0 0 0 0 127 0" result="hardAlpha"/>
<feOffset dy="4"/>
<feGaussianBlur stdDeviation="2"/>
<feComposite in2="hardAlpha" operator="out"/>
<feColorMatrix type="matrix" values="0 0 0 0 0 0 0 0 0 0 0 0 0 0 0 0 0 0 0.25 0"/>
<feBlend mode="normal" in2="BackgroundImageFix" result="effect1_dropShadow_189_26"/>
<feBlend mode="normal" in="SourceGraphic" in2="effect1_dropShadow_189_26" result="shape"/>
</filter>
<clipPath id="clip0_189_26">
<rect width="61" height="57" fill="white" transform="translate(4)"/>
</clipPath>
</defs>
</svg>
