<svg width="130" height="138" viewBox="0 0 130 138" fill="none" xmlns="http://www.w3.org/2000/svg">
<g clip-path="url(#clip0_22_268)">
<path d="M89.6314 24.6947C90.7654 24.6947 91.684 23.7193 91.684 22.5158V2.17889C91.684 0.975164 90.7654 0 89.6314 0C88.4975 0 87.5789 0.975434 87.5789 2.17889V22.5158C87.5789 23.7196 88.4977 24.6947 89.6314 24.6947Z" fill="#330D4E"/>
<path d="M123.842 75.5371H112.973C113.164 73.3183 112.468 71.1031 111.059 69.45C109.635 67.7795 107.601 66.8213 105.478 66.8213H96.6956C95.9255 65.1052 94.2754 63.916 92.3683 63.916H78.684C76.0431 63.916 73.8946 66.1971 73.8946 69.0002V83.3942C73.8946 87.6024 76.8127 91.0778 80.6828 91.4777C81.1601 91.5271 81.6362 91.529 82.1052 91.4829V92.1028C82.1052 96.5042 85.2914 100.073 89.359 100.226C91.4258 100.3 93.375 99.5103 94.8578 97.9912C96.3412 96.4719 97.158 94.4296 97.158 92.2421V71.1791H105.478C106.457 71.1791 107.358 71.6036 108.015 72.3736C108.671 73.1445 108.98 74.138 108.882 75.1719L108.665 77.4742C108.664 77.4888 108.662 77.5034 108.661 77.5182L105.982 105.959C104.963 116.772 96.475 124.926 86.238 124.926H43.762C33.5248 124.926 25.0369 116.772 24.0185 105.959L21.1181 75.1722C21.0206 74.1383 21.3289 73.1442 21.9857 72.3739C22.6426 71.6036 23.5435 71.1793 24.5223 71.1793H67.7371C68.8711 71.1793 69.7897 70.2039 69.7897 69.0005C69.7897 67.7967 68.8711 66.8216 67.7371 66.8216H24.5223C22.3999 66.8216 20.3658 67.7798 18.9419 69.4503C17.5325 71.1036 16.8365 73.3186 17.0272 75.5374H6.15799C2.7625 75.5371 0 78.4696 0 82.0738V84.9791C0 88.5833 2.7625 91.516 6.15799 91.516H13C14.1339 91.516 15.0526 90.5406 15.0526 89.3371C15.0526 88.1337 14.1337 87.1582 13 87.1582H6.15799C5.02607 87.1582 4.10541 86.1809 4.10541 84.9793V82.0741C4.10541 80.8725 5.02607 79.8952 6.15799 79.8952H17.4373L19.9332 106.393C21.1626 119.443 31.4067 129.285 43.7618 129.285H86.238C98.5928 129.285 108.837 119.443 110.067 106.393L112.562 79.8952H123.842C124.974 79.8952 125.894 80.8725 125.894 82.0741V84.9793C125.894 86.1809 124.974 87.1582 123.842 87.1582H117C115.866 87.1582 114.947 88.1337 114.947 89.3371C114.947 90.5406 115.866 91.516 117 91.516H123.842C127.237 91.516 130 88.5835 130 84.9791V82.0738C130 78.4696 127.238 75.5371 123.842 75.5371ZM93.0526 92.2427C93.0526 93.2372 92.6811 94.1655 92.0067 94.8563C91.3329 95.5469 90.4457 95.9045 89.5047 95.8719C87.6883 95.8032 86.2103 94.1124 86.2103 92.1033V88.5536C86.2103 87.7744 85.8183 87.055 85.183 86.6658C84.8656 86.4717 84.5117 86.3747 84.1577 86.3747C83.8025 86.3747 83.4471 86.4725 83.1289 86.6682C82.5056 87.0515 81.7972 87.2143 81.0801 87.141C79.3528 86.9623 77.9997 85.3168 77.9997 83.3948V69.0002C77.9997 68.5997 78.3065 68.2738 78.684 68.2738H92.3683C92.7456 68.2738 93.0526 68.5994 93.0526 69.0002V92.2427Z" fill="#330D4E"/>
<path d="M97.842 24.6947C98.9759 24.6947 99.8946 23.7193 99.8946 22.5158V2.17889C99.8946 0.975164 98.9759 0 97.842 0C96.7081 0 95.7894 0.975434 95.7894 2.17889V22.5158C95.7894 23.7196 96.7083 24.6947 97.842 24.6947Z" fill="#330D4E"/>
<path d="M114.263 133.642H13C11.866 133.642 10.9474 134.618 10.9474 135.821C10.9474 137.025 11.8663 138 13 138H114.263C115.397 138 116.316 137.025 116.316 135.821C116.316 134.617 115.397 133.642 114.263 133.642Z" fill="#330D4E"/>
<path d="M23.2106 58.3828C23.4693 58.3828 23.7303 58.3709 23.9926 58.3464L108.512 50.4974C113.398 50.043 117.025 45.4547 116.597 40.2679C116.169 35.0813 111.847 31.23 106.961 31.6847L80.3781 34.1536L80.08 30.5356C79.7182 26.1471 76.0531 22.8912 71.9263 23.2731L55.5679 24.7922C51.4335 25.1763 48.3646 29.0591 48.7261 33.4477L49.0245 37.0653L22.4418 39.5342C20.0748 39.7541 17.9304 40.9393 16.4031 42.8713C14.8759 44.8033 14.1489 47.2509 14.3559 49.7637C14.7614 54.6716 18.6535 58.3831 23.2106 58.3828ZM19.548 45.6722C20.3704 44.6319 21.5254 43.9936 22.7995 43.8753L51.4125 41.218C51.4175 41.2177 51.4224 41.2172 51.4272 41.2169C51.4325 41.2164 51.4373 41.2158 51.4422 41.2155L56.9679 40.7021C58.0973 40.5972 58.9324 39.5404 58.8339 38.3415C58.7351 37.1429 57.7365 36.2591 56.6102 36.3607L53.1141 36.6855L52.8161 33.0679C52.7363 32.1013 53.0159 31.1601 53.6032 30.4168C54.1905 29.6737 55.0154 29.2182 55.9257 29.1335L72.2841 27.6145C74.164 27.4412 75.8256 28.9203 75.9903 30.9154L76.2887 34.5333L64.8208 35.5985C63.6914 35.7034 62.8563 36.7602 62.9548 37.9591C63.0536 39.1579 64.0499 40.045 65.1785 39.9399L107.319 36.026C109.954 35.7842 112.278 37.855 112.508 40.6476C112.738 43.4403 110.785 45.9113 108.154 46.1558L23.6346 54.0051C22.3615 54.1237 21.1189 53.708 20.1388 52.8353C19.1588 51.9623 18.5575 50.7362 18.446 49.3837C18.3346 48.0306 18.7256 46.7126 19.548 45.6722Z" fill="#330D4E"/>
</g>
<defs>
<clipPath id="clip0_22_268">
<rect width="130" height="138" fill="white"/>
</clipPath>
</defs>
</svg>
