<svg width="160" height="141" viewBox="0 0 160 141" fill="none" xmlns="http://www.w3.org/2000/svg">
<g clip-path="url(#clip0_22_258)">
<path d="M146.526 120.963V49.7209C146.526 48.491 145.396 47.4946 144 47.4946C142.604 47.4946 141.474 48.4913 141.474 49.7209V120.963C141.474 122.193 142.605 123.189 144 123.189C145.396 123.189 146.526 122.193 146.526 120.963Z" fill="#38132E"/>
<path d="M58.1053 106.863H34.5262C29.4184 106.863 25.2631 110.525 25.2631 115.026V132.837C25.2631 134.172 25.629 135.434 26.2762 136.548H14.3159C12.9206 136.548 11.7897 137.544 11.7897 138.774C11.7897 140.004 12.9209 141 14.3159 141H58.1053C63.2131 141 67.3684 137.338 67.3684 132.837V115.026C67.3684 110.525 63.2131 106.863 58.1053 106.863ZM62.3159 132.837C62.3159 134.883 60.4272 136.548 58.1053 136.548H34.5262C32.2044 136.548 30.3156 134.883 30.3156 132.837V123.19H56.4209C57.8162 123.19 58.9472 122.193 58.9472 120.963C58.9472 119.733 57.8159 118.737 56.4209 118.737H30.3159V115.026C30.3159 112.98 32.2047 111.316 34.5265 111.316H58.1056C60.4275 111.316 62.3162 112.98 62.3162 115.026V132.837H62.3159Z" fill="#38132E"/>
<path d="M5.89469 136.547H2.52625C1.13125 136.547 0 137.544 0 138.774C0 140.004 1.13125 141 2.52625 141H5.89469C7.29 141 8.42094 140.004 8.42094 138.774C8.42094 137.544 7.29 136.547 5.89469 136.547Z" fill="#38132E"/>
<path d="M137.263 26.7159H133.895V8.16313C133.895 3.66214 129.739 0 124.632 0H112.842C107.735 0 103.579 3.66214 103.579 8.16313V26.7156H100.211C89.0597 26.7156 79.63 33.7392 77.7882 43.4159C77.5572 44.6287 78.4857 45.7762 79.8619 45.98C81.2375 46.1825 82.54 45.3651 82.7716 44.1525C84.2035 36.6289 91.5379 31.1682 100.211 31.1682H137.263C147.014 31.1682 154.948 38.1595 154.948 46.7522V132.836C154.948 134.882 153.059 136.547 150.737 136.547H110.316C108.92 136.547 107.789 137.544 107.789 138.773C107.789 140.003 108.92 140.999 110.316 140.999H150.737C155.844 141 160 137.338 160 132.837V46.7525C160 35.7041 149.8 26.7159 137.263 26.7159ZM128.842 26.7159H108.632V8.16313C108.632 6.11698 110.52 4.45252 112.842 4.45252H124.632C126.953 4.45252 128.842 6.11698 128.842 8.16313V26.7159Z" fill="#38132E"/>
<path d="M89.2632 86.0838H88.421V58.626C88.421 54.125 84.2654 50.4629 79.1579 50.4629H72.421C67.3132 50.4629 63.1579 54.125 63.1579 58.626V86.0838H62.3157C53.4935 86.0838 46.3157 92.4093 46.3157 100.184C46.3157 101.414 47.4469 102.41 48.8419 102.41C50.2369 102.41 51.3682 101.414 51.3682 100.184C51.3682 94.8641 56.2794 90.5364 62.3157 90.5364H89.2632C95.2997 90.5364 100.211 94.8641 100.211 100.184V132.836C100.211 134.883 98.3219 136.547 96 136.547H73.2632C71.8679 136.547 70.7369 137.544 70.7369 138.773C70.7369 140.003 71.8682 140.999 73.2632 140.999H96C101.108 140.999 105.263 137.337 105.263 132.836V100.184C105.263 92.4093 98.0854 86.0838 89.2632 86.0838ZM83.3685 86.0838H68.2107V58.626C68.2107 56.5799 70.0994 54.9154 72.4213 54.9154H79.1582C81.48 54.9154 83.3688 56.5799 83.3688 58.626V86.0838H83.3685Z" fill="#38132E"/>
<path d="M92.6316 126.9V100.184C92.6316 98.9544 91.5007 97.958 90.1054 97.958C88.7097 97.958 87.5791 98.9544 87.5791 100.184V126.9C87.5791 128.13 88.7097 129.126 90.1054 129.126C91.501 129.126 92.6316 128.13 92.6316 126.9Z" fill="#38132E"/>
</g>
<defs>
<clipPath id="clip0_22_258">
<rect width="160" height="141" fill="white"/>
</clipPath>
</defs>
</svg>
