<svg width="149" height="141" viewBox="0 0 149 141" fill="none" xmlns="http://www.w3.org/2000/svg">
<g clip-path="url(#clip0_22_161)">
<path d="M74.5001 86.084C69.7434 86.084 65.8738 89.7459 65.8738 94.2471C65.8738 98.7484 69.7434 102.41 74.5001 102.41C79.2564 102.41 83.1263 98.7484 83.1263 94.2471C83.1263 89.7459 79.2564 86.084 74.5001 86.084ZM74.5001 97.9577C72.3378 97.9577 70.5789 96.2933 70.5789 94.2471C70.5789 92.201 72.3378 90.5365 74.5001 90.5365C76.6623 90.5365 78.4212 92.201 78.4212 94.2471C78.4212 96.2933 76.6623 97.9577 74.5001 97.9577Z" fill="#681A34"/>
<path d="M120.753 64.063C120.479 59.7939 116.721 56.4 112.142 56.4H111.358V34.879C111.358 15.6466 94.8237 0 74.5001 0C54.1764 0 37.6421 15.6466 37.6421 34.879V56.4H36.8578C32.2787 56.4 28.5214 59.7942 28.2475 64.0633C20.6689 67.2562 15.6841 74.4262 15.6841 82.3737V103.153C15.6841 124.022 33.6255 141 55.6789 141H93.3209C115.374 141 133.316 124.022 133.316 103.153V82.3737C133.316 74.4262 128.331 67.2562 120.753 64.063ZM42.3475 34.879C42.3475 18.1017 56.7711 4.45279 74.5001 4.45279C92.229 4.45279 106.653 18.102 106.653 34.879V56.4H101.948V34.879C101.948 20.5571 89.6346 8.90531 74.5001 8.90531C72.1775 8.90531 69.8694 9.1807 67.6397 9.72377C66.3816 10.0303 65.6238 11.2442 65.9477 12.4347C66.2716 13.6258 67.5553 14.3429 68.8125 14.0358C70.6593 13.5861 72.5727 13.3578 74.4998 13.3578C87.0399 13.3578 97.2418 23.0119 97.2418 34.8788V56.4H51.7581V34.879C51.7581 27.2193 56.1158 20.0757 63.1307 16.2359C64.2552 15.6202 64.6399 14.2583 63.9892 13.194C63.3385 12.1296 61.8994 11.7658 60.7746 12.3816C52.3107 17.015 47.0529 25.6353 47.0529 34.8793V56.4H42.3478L42.3475 34.879ZM128.611 103.153C128.611 121.567 112.78 136.547 93.3212 136.547H55.6789C36.2202 136.547 20.3895 121.567 20.3895 103.153V82.3735C20.3895 76.8943 23.435 71.8902 28.2315 69.0939V70.5C28.2315 93.006 47.5803 111.316 71.3632 111.316H77.6369C87.6924 111.316 97.4807 107.97 105.199 101.896C106.198 101.11 106.334 99.7066 105.504 98.7611C104.673 97.8154 103.19 97.6868 102.19 98.4728C95.3153 103.883 86.5953 106.863 77.6369 106.863H71.3632C50.1747 106.863 32.9369 90.5506 32.9369 70.5V65.6341C32.9378 65.5958 32.9378 65.5573 32.9369 65.5187V64.5629C32.9369 62.5167 34.6958 60.8522 36.8581 60.8522H112.142C114.305 60.8522 116.064 62.5167 116.064 64.5629V65.5242C116.063 65.5589 116.063 65.5936 116.064 65.6283V70.4995C116.064 78.6967 113.251 86.4344 107.929 92.8758C107.128 93.8443 107.309 95.2436 108.333 96.0009C109.357 96.7582 110.835 96.5872 111.635 95.6178C117.611 88.3863 120.769 79.7005 120.769 70.4997V69.0939C125.565 71.8899 128.611 76.8943 128.611 82.3735V103.153Z" fill="#681A34"/>
</g>
<defs>
<clipPath id="clip0_22_161">
<rect width="149" height="141" fill="white"/>
</clipPath>
</defs>
</svg>
