<svg width="30" height="31" viewBox="0 0 30 31" fill="none" xmlns="http://www.w3.org/2000/svg">
<path d="M12.6056 22.8724C15.0017 22.8724 17.2996 21.9016 18.9939 20.1734C20.6881 18.4452 21.64 16.1014 21.64 13.6574C21.64 11.2134 20.6881 8.86952 18.9939 7.14137C17.2996 5.41321 15.0017 4.44235 12.6056 4.44235C10.2095 4.44235 7.91162 5.41321 6.21735 7.14137C4.52308 8.86952 3.57125 11.2134 3.57125 13.6574C3.57125 16.1014 4.52308 18.4452 6.21735 20.1734C7.91162 21.9016 10.2095 22.8724 12.6056 22.8724ZM21.0003 20.6553L27.0588 26.8349L25.5247 28.3996L19.4663 22.22C17.3127 24.0152 14.5651 24.8975 11.7917 24.6845C9.01833 24.4714 6.43127 23.1793 4.56561 21.0754C2.69994 18.9715 1.69838 16.2166 1.76805 13.3806C1.83773 10.5446 2.97333 7.84442 4.93997 5.83844C6.90662 3.83246 9.55388 2.67416 12.3343 2.60308C15.1147 2.53201 17.8155 3.5536 19.8782 5.45659C21.9409 7.35957 23.2076 9.99836 23.4165 12.8272C23.6254 15.6561 22.7603 18.4587 21.0003 20.6553Z" fill="#828282"/>
</svg>
