<svg width="132" height="138" viewBox="0 0 132 138" fill="none" xmlns="http://www.w3.org/2000/svg">
<g clip-path="url(#clip0_22_169)">
<path d="M128.17 14.0787L91.9016 5.83589C90.1557 2.36918 86.6742 0 82.6738 0H49.3262C45.3258 0 41.8443 2.36918 40.0981 5.83589L3.83032 14.0787C1.61055 14.583 0 16.6724 0 19.047V48.6633C0 51.4667 2.18187 53.7475 4.86312 53.7475H27.0948C27.2652 53.7475 27.4349 53.7257 27.6004 53.6825L38.7162 50.7773C39.8331 50.4856 40.5119 49.3024 40.2327 48.135C39.9535 46.9672 38.8212 46.257 37.7053 46.5497L26.8385 49.39H4.86312C4.48027 49.39 4.16831 49.0641 4.16831 48.6636V19.047C4.16831 18.7079 4.39828 18.4093 4.71539 18.3373L38.9101 10.5656C38.907 10.6748 38.9055 10.785 38.9055 10.8947C38.9055 21.708 47.3202 30.5053 57.6634 30.5053H66C67.1511 30.5053 68.0842 29.5296 68.0842 28.3264C68.0842 27.1229 67.1509 26.1475 66 26.1475H57.6631C49.6183 26.1475 43.0738 19.3054 43.0738 10.895C43.0738 7.29055 45.8785 4.35805 49.3265 4.35805H50.0213V10.895C50.0213 15.3005 53.4494 18.8844 57.6634 18.8844H74.3371C78.5511 18.8844 81.9792 15.3005 81.9792 10.895V4.35778H82.674C86.1217 4.35778 88.9268 7.29001 88.9268 10.8947C88.9268 19.3052 82.3822 26.1472 74.3374 26.1472C73.1863 26.1472 72.2532 27.1229 72.2532 28.3261C72.2532 29.5296 73.1865 30.505 74.3374 30.505C84.6806 30.505 93.0953 21.7078 93.0953 10.8945C93.0953 10.7848 93.0938 10.6745 93.0907 10.5654L127.285 18.337C127.602 18.409 127.831 18.7074 127.831 19.0464V48.6631C127.831 49.0633 127.52 49.3894 127.137 49.3894H105.162L94.2949 46.5491C93.1794 46.2578 92.0468 46.9669 91.7676 48.1345C91.4884 49.3018 92.1672 50.4848 93.284 50.7767L102.821 53.2693V132.915C102.821 133.316 102.509 133.642 102.126 133.642H95.8735V125.652C95.8735 123.65 94.3153 122.021 92.3997 122.021H86.8418C84.9263 122.021 83.3681 123.65 83.3681 125.652V133.642H29.8738C29.4909 133.642 29.179 133.316 29.179 132.915V60.3809C29.179 59.1775 28.2457 58.202 27.0948 58.202C25.9437 58.202 25.0106 59.1777 25.0106 60.3809V132.916C25.0106 135.719 27.1925 138 29.8738 138H102.126C104.808 138 106.99 135.719 106.99 132.916V53.7475H127.137C129.818 53.7475 132 51.4665 132 48.6633V19.047C132 16.6724 130.389 14.583 128.17 14.0787ZM77.8106 10.8947C77.8106 12.8973 76.2524 14.5264 74.3369 14.5264H57.6631C55.7476 14.5264 54.1894 12.8973 54.1894 10.8947V4.35778H77.8104V10.8947H77.8106ZM91.7052 133.642H87.5369V126.379H91.7052V133.642Z" fill="#A92236"/>
</g>
<defs>
<clipPath id="clip0_22_169">
<rect width="132" height="138" fill="white"/>
</clipPath>
</defs>
</svg>
