<svg width="56" height="57" viewBox="0 0 56 57" fill="none" xmlns="http://www.w3.org/2000/svg">
<path d="M43.6406 42.7723C41.2234 38.4973 36.6844 35.625 31.5 35.625H24.5C19.3156 35.625 14.7766 38.4973 12.3594 42.7723C16.2094 47.1363 21.7875 49.875 28 49.875C34.2125 49.875 39.7906 47.1252 43.6406 42.7723ZM0 28.5C0 20.9413 2.94999 13.6922 8.20101 8.34746C13.452 3.00267 20.5739 0 28 0C35.4261 0 42.548 3.00267 47.799 8.34746C53.05 13.6922 56 20.9413 56 28.5C56 36.0587 53.05 43.3078 47.799 48.6525C42.548 53.9973 35.4261 57 28 57C20.5739 57 13.452 53.9973 8.20101 48.6525C2.94999 43.3078 0 36.0587 0 28.5ZM28 30.2812C30.0886 30.2812 32.0916 29.4367 33.5685 27.9335C35.0453 26.4303 35.875 24.3915 35.875 22.2656C35.875 20.1397 35.0453 18.1009 33.5685 16.5977C32.0916 15.0945 30.0886 14.25 28 14.25C25.9114 14.25 23.9084 15.0945 22.4315 16.5977C20.9547 18.1009 20.125 20.1397 20.125 22.2656C20.125 24.3915 20.9547 26.4303 22.4315 27.9335C23.9084 29.4367 25.9114 30.2812 28 30.2812Z" fill="black"/>
</svg>
